<?xml version="1.0" encoding="UTF-8" standalone="no"?><!DOCTYPE svg PUBLIC "-//W3C//DTD SVG 1.1//EN" "http://www.w3.org/Graphics/SVG/1.1/DTD/svg11.dtd"><svg width="100%" height="100%" viewBox="0 0 450 450" version="1.1" xmlns="http://www.w3.org/2000/svg" xmlns:xlink="http://www.w3.org/1999/xlink" xml:space="preserve" xmlns:serif="http://www.serif.com/" style="fill-rule:evenodd;clip-rule:evenodd;stroke-miterlimit:10;"><rect id="applymetadata" x="0" y="0" width="450" height="450" style="fill:none;"/><clipPath id="_clip1"><rect x="0" y="0" width="450" height="450"/></clipPath><g clip-path="url(#_clip1)"><g id="Layer-1" serif:id="Layer 1"><g><path d="M206.576,135.606l195.507,-0" style="fill:none;fill-rule:nonzero;stroke:#231f20;stroke-width:41.67px;stroke-dasharray:33.33,33.33;"/><path d="M206.576,314.394l195.507,0" style="fill:none;fill-rule:nonzero;stroke:#231f20;stroke-width:41.67px;stroke-dasharray:33.33,33.33;"/><g transform="matrix(191.014,0,0,191.014,166.834,192.173)"></g><text x="52.207px" y="192.173px" style="font-family:'CourierNewPS-BoldMT', 'Courier New', monospace;font-weight:700;font-size:191.014px;">A</text><path d="M132.884,161.394l-46.447,0l-4.664,11.659l4.664,-0c4.601,-0 7.881,0.886 9.839,2.658c1.959,1.772 2.938,4.088 2.938,6.949c0,2.798 -0.979,5.083 -2.938,6.855c-1.958,1.772 -5.238,2.658 -9.839,2.658l-25.743,-0c-4.601,-0 -7.881,-0.886 -9.839,-2.658c-1.959,-1.772 -2.938,-4.089 -2.938,-6.949c-0,-2.86 1.026,-5.192 3.078,-6.995c2.051,-1.803 5.44,-2.642 10.166,-2.518l30.032,-74.801l-12.498,-0c-4.601,-0 -7.881,-0.886 -9.84,-2.659c-1.958,-1.772 -2.938,-4.088 -2.938,-6.948c0,-2.86 0.98,-5.176 2.938,-6.949c1.959,-1.772 5.239,-2.658 9.84,-2.658l41.318,0.094l38.054,93.921c4.477,-0 7.43,0.497 8.86,1.492c2.86,2.052 4.29,4.757 4.29,8.115c0,2.798 -0.963,5.083 -2.891,6.855c-1.927,1.772 -5.192,2.658 -9.793,2.658l-25.742,-0c-4.601,-0 -7.881,-0.886 -9.84,-2.658c-1.959,-1.772 -2.938,-4.089 -2.938,-6.949c0,-2.798 0.979,-5.083 2.938,-6.855c1.959,-1.772 5.239,-2.658 9.84,-2.658l4.663,-0l-4.57,-11.659Zm-7.928,-19.12l-15.389,-37.867l-15.482,37.867l30.871,0Z" style="fill:none;fill-rule:nonzero;stroke:#000;stroke-width:4.17px;stroke-linejoin:round;stroke-miterlimit:2;"/><g transform="matrix(191.014,0,0,191.014,166.834,370.962)"></g><text x="52.207px" y="370.962px" style="font-family:'CourierNewPS-BoldMT', 'Courier New', monospace;font-weight:700;font-size:191.014px;fill:#ed193f;">B</text><path d="M71.793,351.842l0,-74.802l-2.984,0c-4.601,0 -7.881,-0.886 -9.84,-2.658c-1.959,-1.772 -2.938,-4.088 -2.938,-6.948c0,-2.86 0.979,-5.177 2.938,-6.949c1.959,-1.772 5.239,-2.658 9.84,-2.658l47.94,0c11.441,0 20.643,3.187 27.607,9.56c6.964,6.373 10.446,13.944 10.446,22.711c0,4.166 -0.808,8.083 -2.425,11.752c-1.616,3.668 -4.072,7.057 -7.368,10.166c6.031,3.606 10.555,7.819 13.571,12.638c3.015,4.819 4.523,10.275 4.523,16.369c0,4.849 -1.088,9.357 -3.264,13.523c-1.617,3.172 -3.607,5.69 -5.969,7.555c-3.172,2.612 -7.058,4.741 -11.659,6.389c-4.601,1.648 -10.353,2.472 -17.255,2.472l-56.147,-0c-4.601,-0 -7.881,-0.886 -9.84,-2.658c-1.959,-1.773 -2.938,-4.089 -2.938,-6.949c0,-2.798 0.995,-5.083 2.985,-6.855c1.989,-1.772 5.254,-2.658 9.793,-2.658l2.984,-0Zm19.12,-47.008l20.986,0c7.523,0 13.772,-1.896 18.747,-5.689c3.357,-2.549 5.036,-5.72 5.036,-9.513c0,-3.358 -1.585,-6.296 -4.756,-8.814c-3.172,-2.518 -8.208,-3.778 -15.11,-3.778l-24.903,0l0,27.794Zm0,47.008l33.017,-0c7.773,-0 13.245,-1.151 16.416,-3.451c2.425,-1.741 3.637,-4.228 3.637,-7.462c0,-3.855 -2.394,-7.648 -7.182,-11.379c-4.787,-3.73 -11.658,-5.596 -20.612,-5.596l-25.276,0l0,27.888Z" style="fill:none;fill-rule:nonzero;stroke:#ed193f;stroke-width:4.17px;stroke-linejoin:round;stroke-miterlimit:2;"/></g></g></g></svg>