<?xml version="1.0" encoding="UTF-8" standalone="no"?>
<!DOCTYPE svg PUBLIC "-//W3C//DTD SVG 1.1//EN" "http://www.w3.org/Graphics/SVG/1.1/DTD/svg11.dtd">
<svg width="100%" height="100%" viewBox="0 0 450 450" version="1.1" xmlns="http://www.w3.org/2000/svg" xmlns:xlink="http://www.w3.org/1999/xlink" xml:space="preserve" xmlns:serif="http://www.serif.com/" style="fill-rule:evenodd;clip-rule:evenodd;stroke-miterlimit:10;">
    <g transform="matrix(1,0,0,1,-2540.79,-3047.74)">
        <g id="compass" transform="matrix(0.870051,0,0,0.997999,294.536,-7.22882)">
            <rect x="2581.76" y="3061.09" width="517.211" height="450.902" style="fill:none;"/>
            <clipPath id="_clip1">
                <rect x="2581.76" y="3061.09" width="517.211" height="450.902"/>
            </clipPath>
            <g clip-path="url(#_clip1)">
                <g transform="matrix(0,-4.4667,-5.12357,0,2838.14,3152.99)">
                    <circle cx="-32.296" cy="0.002" r="32.296" style="fill:none;stroke:rgb(35,31,32);stroke-width:7.48px;"/>
                </g>
                <g transform="matrix(0,-4.4667,-5.12357,0,2950.48,3394.81)">
                    <path d="M-21.927,21.927L21.927,21.927" style="fill:none;fill-rule:nonzero;stroke:rgb(35,31,32);stroke-width:2.8px;stroke-linecap:square;stroke-linejoin:round;"/>
                </g>
                <g transform="matrix(0,-4.4667,-5.12357,0,2965.29,3196.71)">
                    <path d="M-24.818,24.818L24.818,24.818" style="fill:none;fill-rule:nonzero;stroke:rgb(35,31,32);stroke-width:7.48px;"/>
                </g>
                <g transform="matrix(5.12357,0,0,4.4667,2615.57,3297.25)">
                    <path d="M0,0L86.88,0" style="fill:none;fill-rule:nonzero;stroke:rgb(35,31,32);stroke-width:2.8px;stroke-linecap:square;stroke-linejoin:round;"/>
                </g>
            </g>
        </g>
    </g>
</svg>
