<?xml version="1.0" encoding="UTF-8" standalone="no"?>
<!DOCTYPE svg PUBLIC "-//W3C//DTD SVG 1.1//EN" "http://www.w3.org/Graphics/SVG/1.1/DTD/svg11.dtd">
<svg width="100%" height="100%" viewBox="0 0 450 450" version="1.1" xmlns="http://www.w3.org/2000/svg" xmlns:xlink="http://www.w3.org/1999/xlink" xml:space="preserve" xmlns:serif="http://www.serif.com/" style="fill-rule:evenodd;clip-rule:evenodd;stroke-linecap:round;stroke-linejoin:round;">
    <g transform="matrix(1,0,0,1,-510.25,-3037.5)">
        <g id="skydome" transform="matrix(4.16667,0,0,4.16667,510.25,3037.5)">
            <rect x="0" y="0" width="108" height="108" style="fill:none;"/>
            <clipPath id="_clip1">
                <rect x="0" y="0" width="108" height="108"/>
            </clipPath>
            <g clip-path="url(#_clip1)">
                <g id="Layer-1" serif:id="Layer 1">
                    <g transform="matrix(0.895376,0.44531,0.44531,-0.895376,-73.3262,75.8666)">
                        <path d="M17.042,-4.004C37.928,-4.004 54.862,13.131 54.864,34.265C54.866,55.402 37.929,72.534 17.042,72.536C-3.845,72.537 -20.783,55.402 -20.781,34.268C-20.781,13.129 -3.849,-4.004 17.042,-4.004" style="fill:white;fill-rule:nonzero;"/>
                    </g>
                    <g transform="matrix(0.895376,0.44531,0.44531,-0.895376,-73.3262,75.8666)">
                        <ellipse cx="17.041" cy="34.266" rx="37.825" ry="38.271" style="fill:none;stroke:white;stroke-width:2.1px;stroke-dasharray:8.28,3.1;"/>
                    </g>
                    <g transform="matrix(0.895376,0.44531,0.44531,-0.895376,-73.3262,75.8666)">
                        <ellipse cx="17.041" cy="34.266" rx="37.825" ry="38.271" style="fill:none;stroke:white;stroke-width:2.1px;stroke-dasharray:8.28,3.1;"/>
                    </g>
                    <g transform="matrix(0.895376,0.44531,0.44531,-0.895376,-73.3262,76.2229)">
                        <path d="M17.042,-4.004C37.928,-4.004 54.862,13.131 54.864,34.265C54.866,55.402 37.929,72.534 17.042,72.536C-3.845,72.537 -20.783,55.402 -20.781,34.268C-20.781,13.129 -3.849,-4.004 17.042,-4.004" style="fill:rgb(255,242,0);fill-rule:nonzero;"/>
                    </g>
                    <g transform="matrix(0.895376,0.44531,0.44531,-0.895376,-73.3262,76.2229)">
                        <ellipse cx="17.041" cy="34.266" rx="37.825" ry="38.271" style="fill:none;stroke:rgb(35,31,32);stroke-width:3.15px;stroke-dasharray:6.24,4.16;"/>
                    </g>
                    <g>
                        <g transform="matrix(1,0,0,1,82.1839,32.8799)">
                            <path d="M0,10.329C-1.529,6.391 -3.839,2.86 -6.743,-0.099L4.367,-11.198C12.881,-2.464 17.534,9.361 17.424,21.527L2.101,21.527C2.101,17.578 1.364,13.794 0,10.329" style="fill:rgb(255,242,0);fill-rule:nonzero;"/>
                        </g>
                        <g transform="matrix(1,0,0,1,84.2849,86.835)">
                            <path d="M0,-32.428L15.323,-32.428C15.279,-25.531 13.684,-18.524 10.395,-11.902C8.151,-7.403 5.291,-3.41 1.969,0L-8.844,-10.813C-6.094,-13.607 -3.883,-16.918 -2.354,-20.592C-0.836,-24.233 0,-28.237 0,-32.428" style="fill:rgb(255,242,0);fill-rule:nonzero;"/>
                        </g>
                        <g transform="matrix(1,0,0,1,86.5509,18.9099)">
                            <path d="M0,2.772L-11.11,13.871C-13.992,10.934 -17.446,8.58 -21.296,6.985C-24.937,5.467 -28.941,4.631 -33.132,4.631L-33.132,-11.022C-26.136,-11.099 -19.041,-9.57 -12.364,-6.248C-7.634,-3.894 -3.487,-0.825 0,2.772" style="fill:rgb(255,242,0);fill-rule:nonzero;"/>
                        </g>
                        <g transform="matrix(1,0,0,1,75.4519,100.915)">
                            <path d="M-0.011,-24.893L10.802,-14.08C2.09,-5.126 -9.801,-0.099 -22.033,0.011L-22.033,-15.642C-18.084,-15.642 -14.3,-16.379 -10.835,-17.743C-6.721,-19.338 -3.036,-21.791 -0.011,-24.893Z" style="fill:rgb(255,242,0);fill-rule:nonzero;"/>
                        </g>
                        <g transform="matrix(1,0,0,1,82.1839,66.2429)">
                            <path d="M0,-23.034C1.364,-19.569 2.101,-15.785 2.101,-11.836C2.101,-7.645 1.265,-3.641 -0.253,0L-12.947,-5.533C-12.166,-7.48 -11.737,-9.614 -11.737,-11.836C-11.737,-14.069 -12.166,-16.192 -12.947,-18.139L0,-23.034Z" style="fill:rgb(255,242,0);fill-rule:nonzero;"/>
                        </g>
                        <g transform="matrix(1,0,0,1,82.1839,30.7899)">
                            <path d="M0,12.419L-12.947,17.314C-13.772,15.235 -14.993,13.365 -16.533,11.781C-18.183,10.065 -20.207,8.69 -22.462,7.799L-16.929,-4.895C-13.079,-3.3 -9.625,-0.946 -6.743,1.991C-3.839,4.95 -1.529,8.481 0,12.419" style="fill:rgb(255,242,0);fill-rule:nonzero;"/>
                        </g>
                        <g transform="matrix(1,0,0,1,69.2369,83.1719)">
                            <path d="M0,-22.462L12.694,-16.929C11.165,-13.255 8.954,-9.944 6.204,-7.15C3.179,-4.048 -0.506,-1.595 -4.62,0L-9.515,-12.947C-7.26,-13.838 -5.236,-15.213 -3.586,-16.929C-2.046,-18.513 -0.825,-20.383 0,-22.462" style="fill:rgb(255,242,0);fill-rule:nonzero;"/>
                        </g>
                        <g transform="matrix(1,0,0,1,70.4469,42.571)">
                            <path d="M0,11.836L-10.725,11.836C-10.725,10.197 -11.352,8.701 -12.375,7.59L-4.796,0C-3.256,1.584 -2.035,3.454 -1.21,5.533C-0.429,7.48 0,9.603 0,11.836" style="fill:rgb(255,242,0);fill-rule:nonzero;"/>
                        </g>
                        <g transform="matrix(1,0,0,1,59.7219,66.243)">
                            <path d="M0,-11.836L10.725,-11.836C10.725,-9.614 10.296,-7.48 9.515,-5.533C8.69,-3.454 7.469,-1.584 5.929,0L-1.65,-7.59C-0.627,-8.701 0,-10.197 0,-11.836" style="fill:rgb(255,242,0);fill-rule:nonzero;"/>
                        </g>
                        <g transform="matrix(1,0,0,1,59.7219,48.9509)">
                            <path d="M0,-10.362C2.255,-9.471 4.279,-8.096 5.929,-6.38L-1.65,1.21C-2.794,-0.055 -4.455,-0.847 -6.303,-0.847L-6.303,-11.572C-4.07,-11.572 -1.947,-11.143 0,-10.362" style="fill:rgb(255,242,0);fill-rule:nonzero;"/>
                        </g>
                        <g transform="matrix(1,0,0,1,65.6509,63.845)">
                            <path d="M0,2.398C-1.65,4.114 -3.674,5.489 -5.929,6.38C-7.876,7.161 -9.999,7.59 -12.232,7.59L-12.232,-3.135C-10.384,-3.135 -8.723,-3.927 -7.579,-5.192L0,2.398Z" style="fill:rgb(255,242,0);fill-rule:nonzero;"/>
                        </g>
                        <g transform="matrix(1,0,0,1,65.2549,36.2349)">
                            <path d="M0,-10.34L-5.533,2.354C-7.48,1.573 -9.603,1.144 -11.836,1.144C-13.86,1.144 -15.807,1.496 -17.6,2.145L-17.622,2.101L-23.133,-10.56C-19.635,-11.935 -15.829,-12.694 -11.836,-12.694C-7.645,-12.694 -3.641,-11.858 0,-10.34" style="fill:rgb(255,242,0);fill-rule:nonzero;"/>
                        </g>
                        <g transform="matrix(1,0,0,1,59.7219,85.0639)">
                            <path d="M0,-14.839L4.895,-1.892C1.43,-0.528 -2.354,0.209 -6.303,0.209C-10.439,0.209 -14.388,-0.605 -17.985,-2.079L-17.963,-2.145L-13.09,-15.048C-11.011,-14.135 -8.723,-13.629 -6.303,-13.629C-4.07,-13.629 -1.947,-14.058 0,-14.839" style="fill:rgb(255,242,0);fill-rule:nonzero;"/>
                        </g>
                        <g transform="matrix(1,0,0,1,58.0719,58.6529)">
                            <path d="M0,-8.492C1.023,-7.381 1.65,-5.885 1.65,-4.246C1.65,-2.607 1.023,-1.111 0,0C-1.144,1.265 -2.805,2.057 -4.653,2.057C-6.49,2.057 -8.151,1.265 -9.295,0C-10.329,-1.111 -10.956,-2.607 -10.956,-4.246C-10.956,-5.885 -10.329,-7.381 -9.295,-8.492C-8.151,-9.757 -6.49,-10.549 -4.653,-10.549C-2.805,-10.549 -1.144,-9.757 0,-8.492" style="fill:rgb(255,242,0);fill-rule:nonzero;"/>
                        </g>
                        <g transform="matrix(1,0,0,1,53.4189,91.7629)">
                            <path d="M0,-6.49L0,9.163C-6.996,9.24 -14.091,7.711 -20.768,4.389C-25.498,2.035 -29.645,-1.034 -33.132,-4.62L-22.022,-15.73C-19.107,-12.76 -15.598,-10.384 -11.682,-8.778C-8.085,-7.304 -4.136,-6.49 0,-6.49" style="fill:rgb(255,242,0);fill-rule:nonzero;"/>
                        </g>
                        <g transform="matrix(1,0,0,1,46.6319,60.0719)">
                            <path d="M0,9.944C-2.057,9.064 -3.905,7.766 -5.445,6.171L2.145,-1.419C3.289,-0.154 4.95,0.638 6.787,0.638L6.787,11.363C4.367,11.363 2.079,10.857 0,9.944" style="fill:rgb(255,242,0);fill-rule:nonzero;"/>
                        </g>
                        <g transform="matrix(1,0,0,1,53.4189,50.161)">
                            <path d="M0,-12.782L0,-2.057C-1.837,-2.057 -3.498,-1.265 -4.642,0L-12.221,-7.59C-10.45,-9.438 -8.239,-10.89 -5.764,-11.77L-5.764,-11.781C-3.971,-12.43 -2.024,-12.782 0,-12.782" style="fill:rgb(255,242,0);fill-rule:nonzero;"/>
                        </g>
                        <g transform="matrix(1,0,0,1,42.1219,14.9939)">
                            <path d="M0,10.681C-4.07,12.276 -7.711,14.718 -10.725,17.787L-21.527,6.985C-12.826,-1.969 -0.924,-6.996 11.297,-7.106L11.297,8.547C7.304,8.547 3.498,9.306 0,10.681" style="fill:rgb(255,242,0);fill-rule:nonzero;"/>
                        </g>
                        <g transform="matrix(1,0,0,1,41.1979,54.4069)">
                            <path d="M0,-11.836L7.579,-4.246C6.545,-3.135 5.918,-1.639 5.918,0L-4.796,-0.132C-4.774,-2.706 -4.191,-5.126 -3.157,-7.304C-2.354,-8.987 -1.287,-10.516 0,-11.836" style="fill:rgb(255,242,0);fill-rule:nonzero;"/>
                        </g>
                        <g transform="matrix(1,0,0,1,48.7769,61.865)">
                            <path d="M0,-3.212L-7.59,4.378C-9.097,2.816 -10.318,0.968 -11.143,-1.078C-11.935,-3.047 -12.375,-5.203 -12.375,-7.458L-12.375,-7.59L-1.661,-7.458C-1.661,-5.819 -1.034,-4.323 0,-3.212" style="fill:rgb(255,242,0);fill-rule:nonzero;"/>
                        </g>
                        <g transform="matrix(1,0,0,1,47.6549,34.3979)">
                            <path d="M0,3.982L0,3.993C-2.475,4.873 -4.686,6.325 -6.457,8.173C-7.744,9.493 -8.811,11.022 -9.614,12.705L-9.779,12.628L-22.077,8.173L-22.638,7.909C-21.109,4.334 -18.931,1.111 -16.258,-1.617C-13.244,-4.686 -9.603,-7.128 -5.533,-8.723L-0.022,3.938L0,3.982Z" style="fill:rgb(255,242,0);fill-rule:nonzero;"/>
                        </g>
                        <g transform="matrix(1,0,0,1,46.6319,73.7559)">
                            <path d="M0,-3.74L-4.873,9.163L-4.895,9.229C-8.811,7.623 -12.32,5.247 -15.235,2.277C-17.963,-0.506 -20.174,-3.806 -21.703,-7.458L-21.582,-7.513L-9.405,-12.815L-8.998,-12.969C-8.173,-10.923 -6.952,-9.075 -5.445,-7.513C-3.905,-5.918 -2.057,-4.62 0,-3.74" style="fill:rgb(255,242,0);fill-rule:nonzero;"/>
                        </g>
                        <g transform="matrix(1,0,0,1,37.8759,61.5789)">
                            <path d="M0,-14.553L0.165,-14.476C-0.869,-12.298 -1.452,-9.878 -1.474,-7.304L-1.474,-7.172C-1.474,-4.917 -1.034,-2.761 -0.242,-0.792L-0.649,-0.638L-12.826,4.664L-12.947,4.719L-12.958,4.719C-14.476,1.067 -15.323,-2.959 -15.323,-7.172C-15.323,-7.271 -15.323,-7.37 -15.312,-7.469C-15.279,-11.66 -14.41,-15.642 -12.859,-19.272L-12.298,-19.008L0,-14.553Z" style="fill:rgb(255,242,0);fill-rule:nonzero;"/>
                        </g>
                        <g transform="matrix(1,0,0,1,20.5949,54.1099)">
                            <path d="M0,-32.131L10.802,-21.329C8.129,-18.601 5.951,-15.378 4.422,-11.803C2.871,-8.173 2.002,-4.191 1.969,0L1.958,0L-13.321,-0.187L-13.365,-0.187C-13.244,-6.93 -11.649,-13.772 -8.437,-20.229C-6.193,-24.728 -3.333,-28.721 0,-32.131" style="fill:rgb(255,242,0);fill-rule:nonzero;"/>
                        </g>
                        <g transform="matrix(1,0,0,1,22.5529,86.659)">
                            <path d="M0,-32.252C0,-28.039 0.847,-24.013 2.365,-20.361L2.376,-20.361C3.905,-16.709 6.116,-13.409 8.844,-10.626L-2.266,0.484C-10.89,-8.371 -15.554,-20.394 -15.323,-32.736L-15.279,-32.736L0,-32.549L0.011,-32.549C0,-32.45 0,-32.351 0,-32.252" style="fill:rgb(255,242,0);fill-rule:nonzero;"/>
                        </g>
                    </g>
                    <g transform="matrix(1,0,0,1,20.2869,21.6709)">
                        <path d="M0,65.472C3.487,69.058 7.634,72.127 12.364,74.481C19.041,77.803 26.136,79.332 33.132,79.255C45.364,79.145 57.255,74.118 65.967,65.164C69.289,61.754 72.149,57.761 74.393,53.262C77.682,46.64 79.277,39.633 79.321,32.736C79.431,20.57 74.778,8.745 66.264,0.011C62.777,-3.586 58.63,-6.655 53.9,-9.009C47.223,-12.331 40.128,-13.86 33.132,-13.783C20.911,-13.673 9.009,-8.646 0.308,0.308C-3.025,3.718 -5.885,7.711 -8.129,12.21C-11.341,18.667 -12.936,25.509 -13.057,32.252C-13.288,44.594 -8.624,56.617 0,65.472Z" style="fill:none;fill-rule:nonzero;stroke:rgb(35,31,32);stroke-width:2.2px;stroke-miterlimit:10;"/>
                    </g>
                    <g transform="matrix(1,0,0,1,84.2849,54.407)">
                        <path d="M0,0C0,4.191 -0.836,8.195 -2.354,11.836C-3.883,15.51 -6.094,18.821 -8.844,21.615C-11.869,24.717 -15.554,27.17 -19.668,28.765C-23.133,30.129 -26.917,30.866 -30.866,30.866C-35.002,30.866 -38.951,30.052 -42.548,28.578C-46.464,26.972 -49.973,24.596 -52.888,21.626C-55.616,18.843 -57.827,15.543 -59.356,11.891L-59.367,11.891C-60.885,8.239 -61.732,4.213 -61.732,0C-61.732,-0.099 -61.732,-0.198 -61.721,-0.297C-61.688,-4.488 -60.819,-8.47 -59.268,-12.1C-57.739,-15.675 -55.561,-18.898 -52.888,-21.626C-49.874,-24.695 -46.233,-27.137 -42.163,-28.732C-38.665,-30.107 -34.859,-30.866 -30.866,-30.866C-26.675,-30.866 -22.671,-30.03 -19.03,-28.512C-15.18,-26.917 -11.726,-24.563 -8.844,-21.626C-5.94,-18.667 -3.63,-15.136 -2.101,-11.198C-0.737,-7.733 0,-3.949 0,0Z" style="fill:none;fill-rule:nonzero;stroke:rgb(35,31,32);stroke-width:2.2px;stroke-miterlimit:10;"/>
                    </g>
                    <g transform="matrix(1,0,0,1,70.4469,54.407)">
                        <path d="M0,0C0,2.222 -0.429,4.356 -1.21,6.303C-2.035,8.382 -3.256,10.252 -4.796,11.836C-6.446,13.552 -8.47,14.927 -10.725,15.818C-12.672,16.599 -14.795,17.028 -17.028,17.028C-19.448,17.028 -21.736,16.522 -23.815,15.609C-25.872,14.729 -27.72,13.431 -29.26,11.836C-30.767,10.274 -31.988,8.426 -32.813,6.38C-33.605,4.411 -34.045,2.255 -34.045,0L-34.045,-0.132C-34.023,-2.706 -33.44,-5.126 -32.406,-7.304C-31.603,-8.987 -30.536,-10.516 -29.249,-11.836C-27.478,-13.684 -25.267,-15.136 -22.792,-16.016L-22.792,-16.027C-20.999,-16.676 -19.052,-17.028 -17.028,-17.028C-14.795,-17.028 -12.672,-16.599 -10.725,-15.818C-8.47,-14.927 -6.446,-13.552 -4.796,-11.836C-3.256,-10.252 -2.035,-8.382 -1.21,-6.303C-0.429,-4.356 0,-2.233 0,0Z" style="fill:none;fill-rule:nonzero;stroke:rgb(35,31,32);stroke-width:2.2px;stroke-miterlimit:10;"/>
                    </g>
                    <g transform="matrix(1,0,0,1,59.7219,54.407)">
                        <path d="M0,0C0,1.639 -0.627,3.135 -1.65,4.246C-2.794,5.511 -4.455,6.303 -6.303,6.303C-8.14,6.303 -9.801,5.511 -10.945,4.246C-11.979,3.135 -12.606,1.639 -12.606,0C-12.606,-1.639 -11.979,-3.135 -10.945,-4.246C-9.801,-5.511 -8.14,-6.303 -6.303,-6.303C-4.455,-6.303 -2.794,-5.511 -1.65,-4.246C-0.627,-3.135 0,-1.639 0,0Z" style="fill:none;fill-rule:nonzero;stroke:rgb(35,31,32);stroke-width:2.2px;stroke-miterlimit:10;"/>
                    </g>
                    <g transform="matrix(-0.999925,-0.0122381,-0.0122381,0.999925,7.27562,53.8294)">
                        <path d="M-15.28,0.093L0.001,0.094" style="fill:none;fill-rule:nonzero;stroke:rgb(35,31,32);stroke-width:1.1px;stroke-linecap:square;stroke-miterlimit:10;"/>
                    </g>
                    <g transform="matrix(-0.999924,-0.0123194,-0.0123194,0.999924,36.4031,54.209)">
                        <path d="M-10.714,0.066L0,0.066" style="fill:none;fill-rule:nonzero;stroke:rgb(35,31,32);stroke-width:1.1px;stroke-linecap:square;stroke-miterlimit:10;"/>
                    </g>
                    <g transform="matrix(1,0,0,1,53.4189,100.992)">
                        <path d="M0,-15.719L0,0" style="fill:none;fill-rule:nonzero;stroke:rgb(35,31,32);stroke-width:1.1px;stroke-linecap:square;stroke-miterlimit:10;"/>
                    </g>
                    <g transform="matrix(0,1,1,0,58.7814,66.0724)">
                        <path d="M-5.363,-5.363L5.363,-5.363" style="fill:none;fill-rule:nonzero;stroke:rgb(35,31,32);stroke-width:1.1px;stroke-linecap:square;stroke-miterlimit:10;"/>
                    </g>
                    <g transform="matrix(1,0,0,1,84.2849,54.407)">
                        <path d="M0,0L15.334,0" style="fill:none;fill-rule:nonzero;stroke:rgb(35,31,32);stroke-width:1.1px;stroke-linecap:square;stroke-miterlimit:10;"/>
                    </g>
                    <g transform="matrix(1,0,0,1,59.7219,54.407)">
                        <path d="M0,0L10.725,0" style="fill:none;fill-rule:nonzero;stroke:rgb(35,31,32);stroke-width:1.1px;stroke-linecap:square;stroke-miterlimit:10;"/>
                    </g>
                    <g transform="matrix(1,0,0,1,53.4189,7.8769)">
                        <path d="M0,15.664L0,0" style="fill:none;fill-rule:nonzero;stroke:rgb(35,31,32);stroke-width:1.1px;stroke-linecap:square;stroke-miterlimit:10;"/>
                    </g>
                    <g transform="matrix(0,-1,-1,0,58.7814,42.7414)">
                        <path d="M-5.363,5.363L5.363,5.363" style="fill:none;fill-rule:nonzero;stroke:rgb(35,31,32);stroke-width:1.1px;stroke-linecap:square;stroke-miterlimit:10;"/>
                    </g>
                    <g transform="matrix(-0.707107,-0.707107,-0.707107,0.707107,25.9959,19.7417)">
                        <path d="M-13.039,5.401L2.237,5.401" style="fill:none;fill-rule:nonzero;stroke:rgb(35,31,32);stroke-width:1.1px;stroke-linecap:square;stroke-miterlimit:10;"/>
                    </g>
                    <g transform="matrix(-0.706594,-0.707619,-0.707619,0.706594,44.9952,41.0029)">
                        <path d="M-9.153,3.795L1.574,3.795" style="fill:none;fill-rule:nonzero;stroke:rgb(35,31,32);stroke-width:1.1px;stroke-linecap:square;stroke-miterlimit:10;"/>
                    </g>
                    <g transform="matrix(0.707457,-0.706756,-0.706756,-0.707457,80.9881,35.0835)">
                        <path d="M-2.297,5.55L13.407,5.55" style="fill:none;fill-rule:nonzero;stroke:rgb(35,31,32);stroke-width:1.1px;stroke-linecap:square;stroke-miterlimit:10;"/>
                    </g>
                    <g transform="matrix(0.706594,-0.707619,-0.707619,-0.706594,61.8692,51.7289)">
                        <path d="M-1.574,3.795L9.153,3.795" style="fill:none;fill-rule:nonzero;stroke:rgb(35,31,32);stroke-width:1.1px;stroke-linecap:square;stroke-miterlimit:10;"/>
                    </g>
                    <g transform="matrix(1,0,0,1,75.4519,87.1759)">
                        <path d="M0,-11.143L11.143,0" style="fill:none;fill-rule:nonzero;stroke:rgb(35,31,32);stroke-width:1.1px;stroke-linecap:square;stroke-miterlimit:10;"/>
                    </g>
                    <g transform="matrix(0.706594,0.707619,0.707619,-0.706594,61.8692,57.085)">
                        <path d="M-1.574,-3.795L9.153,-3.795" style="fill:none;fill-rule:nonzero;stroke:rgb(35,31,32);stroke-width:1.1px;stroke-linecap:square;stroke-miterlimit:10;"/>
                    </g>
                    <g transform="matrix(1,0,0,1,31.3969,87.6819)">
                        <path d="M0,-11.649L-11.649,0" style="fill:none;fill-rule:nonzero;stroke:rgb(35,31,32);stroke-width:1.1px;stroke-linecap:square;stroke-miterlimit:10;"/>
                    </g>
                    <g transform="matrix(-0.707107,0.707107,0.707107,0.707107,44.9819,67.8149)">
                        <path d="M-9.162,-3.795L1.572,-3.795" style="fill:none;fill-rule:nonzero;stroke:rgb(35,31,32);stroke-width:1.1px;stroke-linecap:square;stroke-miterlimit:10;"/>
                    </g>
                    <g transform="matrix(0.353648,0.935379,0.935379,-0.353648,67.359,72.1197)">
                        <path d="M-4.473,-6.473L9.368,-6.473" style="fill:none;fill-rule:nonzero;stroke:rgb(35,31,32);stroke-width:1.1px;stroke-linecap:square;stroke-miterlimit:10;"/>
                    </g>
                    <g transform="matrix(1,0,0,1,69.2259,66.2429)">
                        <path d="M0,-5.533L0.011,-5.533L12.705,0" style="fill:none;fill-rule:nonzero;stroke:rgb(35,31,32);stroke-width:1.1px;stroke-linecap:square;stroke-miterlimit:10;"/>
                    </g>
                    <g transform="matrix(1,0,0,1,69.2369,43.2089)">
                        <path d="M0,4.895L12.947,0L12.958,0" style="fill:none;fill-rule:nonzero;stroke:rgb(35,31,32);stroke-width:1.1px;stroke-linecap:square;stroke-miterlimit:10;"/>
                    </g>
                    <g transform="matrix(1,0,0,1,59.7219,25.8949)">
                        <path d="M0,12.705L0,12.694L5.533,0" style="fill:none;fill-rule:nonzero;stroke:rgb(35,31,32);stroke-width:1.1px;stroke-linecap:square;stroke-miterlimit:10;"/>
                    </g>
                    <g transform="matrix(1,0,0,1,46.6539,82.919)">
                        <path d="M0,-12.958L-0.022,-12.903L-4.895,0" style="fill:none;fill-rule:nonzero;stroke:rgb(35,31,32);stroke-width:1.1px;stroke-linecap:square;stroke-miterlimit:10;"/>
                    </g>
                    <g transform="matrix(-0.916859,0.399211,0.399211,0.916859,26.6144,68.4531)">
                        <path d="M-12.729,-2.651L0.552,-2.651" style="fill:none;fill-rule:nonzero;stroke:rgb(35,31,32);stroke-width:1.1px;stroke-linecap:square;stroke-miterlimit:10;"/>
                    </g>
                    <g transform="matrix(-0.94021,-0.340595,-0.340595,0.94021,26.7042,40.6098)">
                        <path d="M-12.689,2.228L0.391,2.228" style="fill:none;fill-rule:nonzero;stroke:rgb(35,31,32);stroke-width:1.1px;stroke-linecap:square;stroke-miterlimit:10;"/>
                    </g>
                    <g transform="matrix(1,0,0,1,47.6329,25.6309)">
                        <path d="M0,12.705L-5.511,0.044L-5.533,0" style="fill:none;fill-rule:nonzero;stroke:rgb(35,31,32);stroke-width:1.1px;stroke-linecap:square;stroke-miterlimit:10;"/>
                    </g>
                </g>
            </g>
        </g>
    </g>
</svg>
