<?xml version="1.0" encoding="UTF-8" standalone="no"?>
<!DOCTYPE svg PUBLIC "-//W3C//DTD SVG 1.1//EN" "http://www.w3.org/Graphics/SVG/1.1/DTD/svg11.dtd">
<svg width="100%" height="100%" viewBox="0 0 450 450" version="1.1" xmlns="http://www.w3.org/2000/svg" xmlns:xlink="http://www.w3.org/1999/xlink" xml:space="preserve" xmlns:serif="http://www.serif.com/" style="fill-rule:evenodd;clip-rule:evenodd;stroke-linejoin:round;">
    <g transform="matrix(1,0,0,1,-5094,-4589)">
        <g id="viewrose" transform="matrix(1,0,0,1,-0.763134,-0.0310289)">
            <rect x="5094.76" y="4589.03" width="450" height="450" style="fill:none;"/>
            <g transform="matrix(-2.94623,2.94632,2.94632,2.94623,5447.81,4784.06)">
                <path d="M-38.798,-16.071L6.657,-16.071" style="fill:none;fill-rule:nonzero;stroke:rgb(236,0,140);stroke-width:10px;"/>
            </g>
            <g transform="matrix(4.16667,0,0,4.16667,5391.33,4796.74)">
                <path d="M0,-40.985L-0.008,-12.206L28.772,-12.215L16.558,-0.001L-12.213,0L-12.214,-28.771L0,-40.985Z" style="fill:rgb(236,0,140);fill-rule:nonzero;"/>
            </g>
            <g transform="matrix(-2.94623,-2.94633,-2.94633,2.94623,5444.17,4838.6)">
                <path d="M-35.985,14.906L6.174,14.906" style="fill:none;fill-rule:nonzero;stroke:rgb(43,182,115);stroke-width:10px;"/>
            </g>
            <g transform="matrix(4.16667,0,0,4.16667,5512.42,4943.79)">
                <path d="M0,-16.555L-28.778,-16.564L-28.771,12.215L-40.985,0.001L-40.984,-28.77L-12.214,-28.769L0,-16.555Z" style="fill:rgb(43,182,115);fill-rule:nonzero;"/>
            </g>
            <g transform="matrix(2.94628,-2.94628,-2.94628,-2.94628,5205.12,5024.94)">
                <path d="M-6.657,16.072L38.8,16.072" style="fill:none;fill-rule:nonzero;stroke:rgb(221,235,190);stroke-width:10px;"/>
            </g>
            <g transform="matrix(4.16667,0,0,4.16667,5261.6,4822.87)">
                <path d="M0,40.984L0.008,12.206L-28.771,12.214L-16.557,0L12.214,0L12.214,28.77L0,40.984Z" style="fill:rgb(221,235,190);fill-rule:nonzero;"/>
            </g>
            <g transform="matrix(2.94623,2.94633,2.94633,-2.94623,5208.76,4605.34)">
                <path d="M-6.174,-14.906L35.985,-14.906" style="fill:none;fill-rule:nonzero;stroke:rgb(36,170,225);stroke-width:10px;"/>
            </g>
            <g transform="matrix(4.16667,0,0,4.16667,5140.51,4675.82)">
                <path d="M0,16.555L28.779,16.564L28.771,-12.215L40.985,0L40.984,28.77L12.214,28.769L0,16.555Z" style="fill:rgb(36,170,225);fill-rule:nonzero;"/>
            </g>
        </g>
    </g>
</svg>
