<?xml version="1.0" encoding="UTF-8" standalone="no"?>
<!DOCTYPE svg PUBLIC "-//W3C//DTD SVG 1.1//EN" "http://www.w3.org/Graphics/SVG/1.1/DTD/svg11.dtd">
<svg width="100%" height="100%" viewBox="0 0 450 450" version="1.1" xmlns="http://www.w3.org/2000/svg" xmlns:xlink="http://www.w3.org/1999/xlink" xml:space="preserve" xmlns:serif="http://www.serif.com/" style="fill-rule:evenodd;clip-rule:evenodd;stroke-linecap:round;stroke-linejoin:round;stroke-miterlimit:10;">
    <g transform="matrix(1,0,0,1,-4054,-2531.25)">
        <g id="visibilitypercent" transform="matrix(4.16667,0,0,4.16667,4054,2531.25)">
            <rect x="0" y="0" width="108" height="108" style="fill:none;"/>
            <clipPath id="_clip1">
                <rect x="0" y="0" width="108" height="108"/>
            </clipPath>
            <g clip-path="url(#_clip1)">
                <g id="Layer-1" serif:id="Layer 1">
                    <g transform="matrix(0,-1,-1,0,51.3993,11.421)">
                        <path d="M-43.968,-43.968C-68.251,-43.968 -87.936,-24.283 -87.936,0C-87.936,24.283 -68.251,43.968 -43.968,43.968C-19.685,43.968 0,24.283 0,0C0,-24.283 -19.685,-43.968 -43.968,-43.968" style="fill:rgb(221,235,190);fill-rule:nonzero;"/>
                    </g>
                    <g transform="matrix(0,-1,-1,0,51.3993,11.421)">
                        <circle cx="-43.968" cy="0" r="43.968" style="fill:none;stroke:black;stroke-width:3.26px;stroke-dasharray:13.06,4.35;"/>
                    </g>
                    <g transform="matrix(1,0,0,1,1.8326,55.7061)">
                        <path d="M0,0L5.513,0" style="fill:none;fill-rule:nonzero;stroke:rgb(35,31,32);stroke-width:3.31px;stroke-linecap:butt;stroke-linejoin:miter;"/>
                    </g>
                    <g transform="matrix(1,0,0,1,13.1559,55.7061)">
                        <path d="M0,0L84.257,0" style="fill:none;fill-rule:nonzero;stroke:rgb(35,31,32);stroke-width:3.31px;stroke-linecap:butt;stroke-linejoin:miter;stroke-dasharray:11.62,5.81;"/>
                    </g>
                    <g transform="matrix(1,0,0,1,100.318,55.7061)">
                        <path d="M0,0L5.513,0" style="fill:none;fill-rule:nonzero;stroke:rgb(35,31,32);stroke-width:3.31px;stroke-linecap:butt;stroke-linejoin:miter;"/>
                    </g>
                    <g transform="matrix(1,0,0,1,6.9177,55.7055)">
                        <path d="M0,-0.062C8.338,16.171 25.25,27.277 44.755,27.277C64.258,27.277 81.172,16.171 89.509,-0.062L89.509,-0C81.172,-16.233 64.258,-27.339 44.755,-27.339C25.25,-27.339 8.338,-16.233 0,-0" style="fill:rgb(236,0,140);fill-rule:nonzero;stroke:black;stroke-width:3.31px;stroke-dasharray:13.23,4.41;"/>
                    </g>
                    <g transform="matrix(0,-1,-1,0,51.2311,33.6002)">
                        <path d="M-22.524,-22.516C-34.956,-22.516 -45.041,-12.434 -45.041,0.004C-45.041,12.442 -34.956,22.524 -22.524,22.524C-10.083,22.524 0.001,12.442 0.001,0.004C0.001,-12.434 -10.083,-22.516 -22.524,-22.516" style="fill:rgb(0,174,239);fill-rule:nonzero;"/>
                    </g>
                    <g transform="matrix(0,-1,-1,0,51.2256,47.6815)">
                        <path d="M-8.438,-8.442C-13.105,-8.442 -16.881,-4.663 -16.881,-0.001C-16.881,4.66 -13.105,8.438 -8.438,8.438C-3.775,8.438 0.001,4.66 0.001,-0.001C0.001,-4.663 -3.775,-8.442 -8.438,-8.442" style="fill:rgb(3,4,4);fill-rule:nonzero;"/>
                    </g>
                    <g transform="matrix(0,-1,-1,0,42.786,42.5726)">
                        <path d="M-5.108,-5.111C-7.932,-5.111 -10.22,-2.824 -10.22,-0.002C-10.22,2.821 -7.932,5.108 -5.108,5.108C-2.287,5.108 0,2.821 0,-0.002C0,-2.824 -2.287,-5.111 -5.108,-5.111" style="fill:rgb(232,237,240);fill-rule:nonzero;"/>
                    </g>
                </g>
            </g>
        </g>
    </g>
</svg>
